# xmcd CD database file
#
# Track frame offsets:
#	150
#	27524
#	66887
#	93523
#	126405
#	154643
#	189919
#	217097
#	248756
#	286427
#
# Disc length: 4146 seconds
#
# Revision: 0
# Processed by: cddbd v1.4PL0 Copyright (c) Steve Scherf et al.
# Submitted via: CDex 1.50beta9
#
DISCID=9210300a
DTITLE=Unified Jazz Ensemble - New Slant
DYEAR=1997
DGENRE=Jazz
TTITLE0=Estuary
TTITLE1=Smaze
TTITLE2=Hypothesis
TTITLE3=You Know Who You Are
TTITLE4=30/31
TTITLE5=Ark Prayer
TTITLE6=The Hitchhiker
TTITLE7=Enchantment
TTITLE8=Willow St. Nocturne
TTITLE9=Snowdancer
EXTD=YEAR: 1997
EXTT0=
EXTT1=
EXTT2=
EXTT3=
EXTT4=
EXTT5=
EXTT6=
EXTT7=
EXTT8=
EXTT9=
PLAYORDER=
